<svg width="546" height="121" viewBox="0 0 546 121" fill="none" xmlns="http://www.w3.org/2000/svg">
<path d="M105.057 84.9537C105.057 65.4837 114.648 62.6044 127.353 62.5474C131.871 62.6238 136.355 63.3369 140.674 64.6656V70.1958C137.318 69.3143 132.32 68.0776 127.556 68.0776C117.083 68.0776 111.317 71.1344 111.317 85.0171C111.317 98.8998 117.141 101.957 128.14 101.957C132.648 101.984 137.113 101.084 141.258 99.312V105.02C138.137 106.491 132.079 107.493 127.937 107.493C114.641 107.48 105.057 104.303 105.057 84.9537Z" fill="#5F6178"/>
<path d="M146.174 91.1879C146.174 77.1911 153.056 74.8382 161.822 74.8382C170.589 74.8382 177.471 77.1911 177.471 91.1879C177.471 105.071 170.589 107.481 161.822 107.481C153.056 107.481 146.174 105.064 146.174 91.1879ZM152.117 91.1879C152.117 101.246 155.822 102.603 161.822 102.603C167.823 102.603 171.527 101.253 171.527 91.1879C171.527 81.0407 167.823 79.7215 161.822 79.7215C155.822 79.7215 152.117 81.009 152.117 91.1879Z" fill="#5F6178"/>
<path d="M185.064 75.4787H189.948L190.538 78.1868C194.598 76.2461 199.66 74.8953 203.656 74.8953C210.069 74.8953 215.074 78.1297 215.074 88.131V106.891H209.13V88.7145C209.016 81.6558 206.422 79.8357 201.778 79.8357C198.252 79.8357 194.128 81.3641 190.995 83.0067V106.884H185.051L185.064 75.4787Z" fill="#5F6178"/>
<path d="M224.126 75.4787H229.01L229.6 78.1868C233.659 76.2461 238.721 74.8953 242.718 74.8953C249.131 74.8953 254.135 78.1297 254.135 88.131V106.891H248.192V88.7145C248.071 81.6558 245.483 79.8357 240.84 79.8357C237.313 79.8357 233.19 81.3641 230.057 83.0067V106.884H224.113L224.126 75.4787Z" fill="#5F6178"/>
<path d="M260.542 91.1244C260.542 77.5399 266.955 74.8889 276.66 74.8889C286.365 74.8889 291.25 78.6941 291.25 87.5349V93.4139H266.6C267.069 99.5339 269.772 102.648 277.777 102.648C281.913 102.531 286.012 101.838 289.956 100.587V105.235C286.003 106.711 281.818 107.468 277.599 107.468C266.72 107.48 260.542 103.066 260.542 91.1244ZM266.543 88.8921H285.306V87.5412C285.306 81.7763 282.483 79.7786 276.66 79.7786C269.245 79.7723 266.892 82.0681 266.543 88.8984V88.8921Z" fill="#5F6178"/>
<path d="M313.254 74.8953C316.671 74.989 320.058 75.5633 323.315 76.6013V81.5988C320.358 80.4842 317.237 79.8691 314.079 79.7786C307.666 79.7786 302.135 80.8377 302.135 91.1942C302.135 101.551 307.723 102.61 314.079 102.61C317.374 102.559 320.62 101.798 323.594 100.377V105.495C320.473 106.967 315.83 107.493 313.825 107.493C304.78 107.481 296.172 104.753 296.172 91.1879C296.172 77.6223 303.721 74.8953 313.254 74.8953Z" fill="#5F6178"/>
<path d="M327.666 75.4787H333.077L333.781 67.7161H338.957V75.4787H349.106V80.2416H338.957V95.0628C338.957 100.536 339.839 102.591 344.076 102.591C346.289 102.496 348.447 101.872 350.369 100.771V105.711C348.093 106.82 345.605 107.422 343.074 107.474C335.957 107.474 333.014 103.885 333.014 96.0585V80.2479H327.66L327.666 75.4787Z" fill="#5F6178"/>
<path d="M354.435 91.1244C354.435 77.5399 360.848 74.8889 370.553 74.8889C380.258 74.8889 385.142 78.6941 385.142 87.5349V93.4139H360.492C360.962 99.5339 363.664 102.648 371.669 102.648C375.805 102.531 379.904 101.838 383.848 100.587V105.235C379.896 106.711 375.711 107.468 371.492 107.468C360.607 107.48 354.435 103.066 354.435 91.1244ZM360.435 88.8921H379.199V87.5412C379.199 81.7763 376.376 79.7786 370.553 79.7786C363.138 79.7723 360.784 82.0681 360.435 88.8984V88.8921Z" fill="#5F6178"/>
<path d="M390.052 91.2449C390.052 77.1847 396.934 74.8953 405.168 74.8953C409.17 74.8953 412.875 75.9544 415.641 78.599V60.778H421.584V106.891H416.935L416.262 103.485C413.674 106.307 409.614 107.487 405.2 107.487C396.909 107.48 390.052 105.185 390.052 91.2449ZM396.053 91.2449C396.053 101.481 399.821 102.54 405.878 102.54C412.057 102.54 415.761 100.13 415.761 91.2449C415.761 82.3598 412.171 79.8293 405.878 79.8293C399.789 79.8357 396.084 80.9519 396.084 91.2449H396.053Z" fill="#5F6178"/>
<path d="M429.868 84.9537C429.868 65.4837 439.459 62.6044 452.165 62.5474C456.683 62.6238 461.167 63.3369 465.486 64.6656V70.1958C462.13 69.3143 457.132 68.0776 452.368 68.0776C441.895 68.0776 436.129 71.1344 436.129 85.0171C436.129 98.8998 441.952 101.957 452.951 101.957C457.459 101.984 461.924 101.084 466.069 99.312V105.02C462.948 106.491 456.891 107.493 452.748 107.493C439.453 107.48 429.868 104.303 429.868 84.9537Z" fill="#193B4F" stroke="#193B4F" stroke-miterlimit="10"/>
<path d="M473.459 62.7186H479.752V68.1283H473.459V62.7186ZM473.637 75.4851H479.58V106.891H473.637V75.4851Z" fill="#193B4F" stroke="#193B4F" stroke-miterlimit="10"/>
<path d="M486.285 75.4787H491.696L492.4 67.7161H497.576V75.4787H507.725V80.2416H497.576V95.0628C497.576 100.536 498.458 102.591 502.695 102.591C504.908 102.496 507.066 101.872 508.988 100.771V105.711C506.712 106.82 504.224 107.422 501.693 107.474C494.576 107.474 491.633 103.885 491.633 96.0585V80.2479H486.279L486.285 75.4787Z" fill="#193B4F" stroke="#193B4F" stroke-miterlimit="10"/>
<path d="M510.7 75.4787H516.581L526.996 101.709H528.702L539.118 75.4787H544.998L527.237 119.651H521.414L526.533 106.891H523.26L510.7 75.4787Z" fill="#193B4F" stroke="#193B4F" stroke-miterlimit="10"/>
<path d="M64.9991 101.018C63.1786 88.1881 75.8714 78.7005 87.7587 82.2266C93.6388 83.9707 96.1508 74.7938 90.296 73.0561C85.794 71.7131 81.0234 71.5431 76.4372 72.562C71.851 73.581 67.6014 75.7552 64.0921 78.878C57.1589 85.1313 54.5772 94.5111 55.8458 103.548C56.2074 106.085 59.4488 107.5 61.7006 106.872C64.4346 106.104 65.3861 103.587 65.0245 101.018H64.9991Z" fill="#F8DB21"/>
<path d="M44.9165 99.8447C44.8594 93.0841 44.8086 86.2792 47.0541 79.8103C49.0202 74.3905 52.3574 69.5726 56.7403 65.8262C66.2551 57.5245 79.7726 56.2434 91.2094 60.9365C93.6008 61.9195 96.4172 59.871 97.0642 57.6133C97.8444 54.8926 96.1064 52.7363 93.7404 51.7596C88.5644 49.6418 83.0182 48.5764 77.4257 48.6257C71.8333 48.6751 66.3067 49.8381 61.1689 52.0469C56.0311 54.2558 51.385 57.4661 47.5021 61.4904C43.6192 65.5146 40.5774 70.2722 38.5542 75.4851C35.446 83.2223 35.3318 91.6191 35.3826 99.8384C35.4333 105.958 44.9482 105.971 44.8974 99.8384L44.9165 99.8447Z" fill="#F8DB21"/>
<path d="M92.4698 100.224C92.7559 96.1749 89.7045 92.6603 85.6543 92.3743C81.604 92.0883 78.0888 95.1392 77.8027 99.1886C77.5167 103.238 80.5681 106.753 84.6183 107.039C88.6685 107.325 92.1838 104.274 92.4698 100.224Z" fill="#F8DB21" stroke="#F8DB21" stroke-width="0.25" stroke-miterlimit="10"/>
<path d="M23.2543 66.6126L32.7057 50.8908L30.1684 36.0949L46.0265 13.4729L50.0418 36.3041C52.4906 35.1836 54.9976 34.1949 57.5522 33.3424L53.8604 5L70.2196 9.66772L74.4505 31.6555V31.8204H80.6035L79.5442 16.682H95.9541L97.134 33.5961V34.7313C98.373 34.9174 99.6057 35.1161 100.832 35.3275" stroke="#193B4F" stroke-width="7" stroke-miterlimit="10"/>
<path d="M17.1267 27.9454L16.9111 43.3565" stroke="#193B4F" stroke-width="7" stroke-miterlimit="10"/>
<path d="M0 87.7505H9.08986H10.7835V43.3565H23.2543V67.881" stroke="#193B4F" stroke-width="7" stroke-miterlimit="10"/>
</svg>
