<svg id="Layer_1" data-name="Layer 1" xmlns="http://www.w3.org/2000/svg" viewBox="0 0 122.88 122.76"><title>corporate</title><path d="M26.32,110.82V46.48H3.57v66H25a8,8,0,0,0-1.22,3.29l-.06.28H1.79A1.79,1.79,0,0,1,0,114.28V45.52a2.68,2.68,0,0,1,.77-1.86,2.63,2.63,0,0,1,1.86-.77H26.32V3.14A3.1,3.1,0,0,1,27.24.93h0A3.12,3.12,0,0,1,29.46,0H93.14a3.12,3.12,0,0,1,2.22.92l.14.15a3.09,3.09,0,0,1,.79,2.07V42.89h24a2.62,2.62,0,0,1,1.85.77h0a2.64,2.64,0,0,1,.77,1.85v68.76a1.79,1.79,0,0,1-1.79,1.79H99.16l-.06-.28a7.93,7.93,0,0,0-1.22-3.29h21.43v-66h-23v64c-.25-.32-.53-.67-.83-1.07h0a13.93,13.93,0,0,0-2.18-2.28l-.54-.43V3.57H29.89V106.91l-.26.21a13.12,13.12,0,0,0-2.19,2.28c-.43.56-.8,1-1.12,1.42Zm47.8-5.13a43,43,0,0,0,10.17,5.09c7.32,2.47,7.29,1.55,7.29,12H67.16l7-17.07Zm-25.84,0a43.22,43.22,0,0,1-10.17,5.09c-7.32,2.47-7.3,1.55-7.3,12H55.24l-7-17.07Zm5-4.57c.18-1.45-4.09-6.92-4.87-9.58-1.68-2.66-2.27-6.91-.44-9.69.72-1.12.41-2.09.41-3.63,0-15.28,26.78-15.29,26.78,0,0,1.94-.43,2.39.61,3.92,1.75,2.53.85,7-.63,9.41-1,2.77-5.43,8-5.1,9.57.28,7.84-16.78,7.58-16.73,0Zm9.77,13.56H64a1.53,1.53,0,0,0,1.54-1.53v-2.5A1.54,1.54,0,0,0,64,109.11H58.45a1.53,1.53,0,0,0-1.53,1.54v2.49a1.53,1.53,0,0,0,1.53,1.54h1l-1.83,8.08h7.27l-1.76-8.08Zm40.18-34h7.42c.16,0,.3.1.3.21v5.83c0,.12-.14.23-.3.23h-7.42c-.16,0-.3-.1-.3-.23V80.88c0-.11.14-.21.3-.21ZM12,80.67h7.42c.16,0,.3.1.3.21v5.83c0,.12-.14.23-.3.23H12c-.16,0-.3-.1-.3-.23V80.88c0-.11.14-.21.3-.21ZM37.9,10.5H84.71a1.43,1.43,0,0,1,1.42,1.43V32.79a1.43,1.43,0,0,1-1.42,1.43H37.9a1.43,1.43,0,0,1-1.42-1.43V11.93A1.41,1.41,0,0,1,37.9,10.5Zm65.37,57.44h7.42c.16,0,.3.1.3.22V74c0,.11-.14.22-.3.22h-7.42c-.16,0-.3-.1-.3-.22V68.16c0-.14.14-.22.3-.22Zm0-12.75h7.42c.16,0,.3.1.3.22v5.83c0,.11-.14.22-.3.22h-7.42c-.16,0-.3-.1-.3-.22V55.41c0-.12.14-.22.3-.22ZM12,67.94h7.42c.16,0,.3.1.3.22V74c0,.11-.14.22-.3.22H12c-.16,0-.3-.1-.3-.22V68.16c0-.14.14-.22.3-.22Zm0-12.75h7.42c.16,0,.3.1.3.22v5.83c0,.11-.14.22-.3.22H12c-.16,0-.3-.1-.3-.22V55.41c0-.12.14-.22.3-.22ZM75.39,63h9.27a.3.3,0,0,1,.29.3V73.85a.29.29,0,0,1-.29.29H80.92a18.14,18.14,0,0,0-1.24-5.23,15.14,15.14,0,0,0-2.88-4.57h0A17.87,17.87,0,0,0,75.39,63ZM37.94,63H48.45a17.16,17.16,0,0,0-2.25,2.34,14.85,14.85,0,0,0-2.65,5.19h0c-.13.47-.24.92-.32,1.36s-.14.87-.19,1.34l0,.27,0,.61H37.94a.3.3,0,0,1-.3-.29V63.32a.31.31,0,0,1,.3-.3ZM74.13,42.58H84.66a.3.3,0,0,1,.29.3V53.41a.3.3,0,0,1-.29.3H74.13a.31.31,0,0,1-.3-.3V42.88a.31.31,0,0,1,.3-.3Zm-18.1,0H66.56a.31.31,0,0,1,.3.3V53.41a.31.31,0,0,1-.3.3H56a.3.3,0,0,1-.29-.3V42.88a.3.3,0,0,1,.29-.3Zm-18.09,0H48.47a.31.31,0,0,1,.3.3V53.41a.31.31,0,0,1-.3.3H37.94a.31.31,0,0,1-.3-.3V42.88a.31.31,0,0,1,.3-.3Z"/></svg>