<svg width="48" height="48" viewBox="0 0 48 48" fill="none" xmlns="http://www.w3.org/2000/svg">
<circle cx="24" cy="24" r="24" fill="#FFD84F"/>
<path fill-rule="evenodd" clip-rule="evenodd" d="M38.3514 18.451C37.5983 16.5574 36.4427 14.8316 34.8841 13.2738L38.1476 10.0053C40.5718 12.4311 42.2422 15.1696 43.1581 18.2209C43.7177 20.0799 43.9984 22.0548 44 24.1458V24.1512C43.9993 27.2082 43.4014 30.0164 42.2062 32.5758C41.2444 34.6453 39.8931 36.5522 38.1528 38.2969L34.8787 35.0232C36.0738 33.8273 37.0312 32.5338 37.7499 31.1429C38.8392 29.0366 39.3831 26.706 39.3818 24.1511V24.1458C39.3844 22.1044 39.0412 20.2061 38.3514 18.451Z" fill="#333333"/>
<path fill-rule="evenodd" clip-rule="evenodd" d="M32.5983 15.6061C33.3864 16.3993 34.042 17.2483 34.5649 18.1529H34.5703C35.5993 19.9323 36.1136 21.9264 36.1131 24.1354V24.1458C36.1127 26.4393 35.5602 28.5032 34.455 30.3377H34.4499C33.9398 31.1767 33.314 31.9681 32.5721 32.7119V32.7065L32.567 32.7119L29.2928 29.4381C29.506 29.2181 29.7029 28.9932 29.8839 28.7635V28.7581C30.947 27.4394 31.4805 25.9018 31.4844 24.1458V24.1354C31.4827 22.0737 30.7542 20.3149 29.2982 18.8589L32.5774 15.5748C32.5849 15.5847 32.5918 15.5952 32.5983 15.6061Z" fill="#333333"/>
<path fill-rule="evenodd" clip-rule="evenodd" d="M21.2856 21.4108C22.0354 20.6603 22.9418 20.2856 24.0053 20.2865C25.0705 20.2856 25.9788 20.6603 26.7302 21.4108L26.7355 21.4161C27.4827 22.1665 27.8557 23.0729 27.8546 24.1354V24.1458C27.8532 25.2063 27.4783 26.1109 26.7302 26.86C26.7275 26.8624 26.7259 26.8661 26.725 26.8704C25.9732 27.614 25.0669 27.9852 24.0052 27.9844C22.9431 27.9853 22.0382 27.6122 21.2907 26.8652L21.2855 26.86C20.5385 26.1125 20.1637 25.2093 20.161 24.1511C20.161 24.1458 20.161 24.1406 20.161 24.1353C20.1599 23.0759 20.5314 22.171 21.2751 21.4212C21.2782 21.4182 21.2817 21.4148 21.2856 21.4108Z" fill="#333333"/>
<path fill-rule="evenodd" clip-rule="evenodd" d="M11.8872 24.1354C11.8866 23.9875 11.8884 23.8412 11.8925 23.6962C11.9925 20.5391 13.171 17.8321 15.428 15.5748L18.702 18.8485C17.2444 20.3077 16.5174 22.07 16.521 24.1354C16.521 24.1407 16.521 24.1458 16.521 24.1512C16.5197 24.3814 16.5285 24.6082 16.5472 24.831V24.8361C16.6919 26.6057 17.4102 28.1381 18.702 29.433C18.7052 29.4363 18.7086 29.4397 18.7125 29.4434L15.4332 32.7172L15.428 32.7119C13.0697 30.349 11.8895 27.4954 11.8872 24.1512C11.8872 24.1458 11.8872 24.1406 11.8872 24.1354Z" fill="#333333"/>
<path fill-rule="evenodd" clip-rule="evenodd" d="M4.17276 21.3847C4.72292 17.0308 6.61629 13.2358 9.85259 10L13.1265 13.2738C10.4966 15.9018 9.01651 19.0065 8.68619 22.5875C8.64035 23.0981 8.61761 23.6192 8.61824 24.1511C8.61842 28.3941 10.1178 32.018 13.1161 35.0232L13.1213 35.0285L9.84729 38.3021L9.84207 38.2969C5.94487 34.3907 3.99749 29.6754 4 24.1511C4.00054 23.205 4.05807 22.2827 4.17276 21.3847Z" fill="#333333"/>
</svg>
