<svg width="35" height="43" viewBox="0 0 35 43" fill="none" xmlns="http://www.w3.org/2000/svg">
<path d="M32.3333 17.1667C32.3333 25.7813 17.1667 41 17.1667 41C17.1667 41 2 25.7813 2 17.1667C2 8.552 8.79033 2 17.1667 2C25.543 2 32.3333 8.552 32.3333 17.1667Z" fill="url(#paint0_radial_2_31)" stroke="black" stroke-width="4" stroke-linecap="round" stroke-linejoin="round"/>
<path d="M26.6057 12.9987C26.3879 12.9987 26.2113 13.1753 26.2113 13.393V15.1525C26.2031 15.1521 26.195 15.1512 26.1868 15.1512H8.80329C8.79837 15.1512 8.79355 15.1519 8.78866 15.152V10.3943C8.78866 10.1766 8.61212 10 8.39433 10C8.17654 10 8 10.1766 8 10.3943V22.5279C8 22.7457 8.17654 22.9222 8.39433 22.9222C8.61212 22.9222 8.78866 22.7457 8.78866 22.5279V19.6747C8.79355 19.6749 8.79837 19.6755 8.80329 19.6755H26.1868C26.195 19.6755 26.2031 19.6747 26.2113 19.6743V22.5279C26.2113 22.7457 26.3879 22.9222 26.6057 22.9222C26.8235 22.9222 27 22.7457 27 22.5279V13.393C27 13.1752 26.8235 12.9987 26.6057 12.9987ZM25.536 18.4989H9.45406C9.23627 18.4989 9.05973 18.3223 9.05973 18.1046C9.05973 17.8868 9.23627 17.7102 9.45406 17.7102H25.536C25.7538 17.7102 25.9303 17.8868 25.9303 18.1046C25.9303 18.3223 25.7538 18.4989 25.536 18.4989Z" fill="black"/>
<path d="M14.5114 14.0981C14.5114 13.4883 14.0171 12.9939 13.4073 12.9939H10.3315C9.72171 12.9939 9.22737 13.4883 9.22737 14.0981V14.6896H14.5114V14.0981Z" fill="black"/>
<defs>
<radialGradient id="paint0_radial_2_31" cx="0" cy="0" r="1" gradientUnits="userSpaceOnUse" gradientTransform="translate(17.1667 21.5) rotate(90) scale(19.5 15.1667)">
<stop stop-color="#FF8D8D"/>
<stop offset="1" stop-color="#FE6868"/>
</radialGradient>
</defs>
</svg>
