<svg width="35" height="43" viewBox="0 0 35 43" fill="none" xmlns="http://www.w3.org/2000/svg">
<path d="M32.3333 17.1667C32.3333 25.7813 17.1667 41 17.1667 41C17.1667 41 2 25.7813 2 17.1667C2 8.552 8.79033 2 17.1667 2C25.543 2 32.3333 8.552 32.3333 17.1667Z" fill="url(#paint0_radial_5_171)" stroke="black" stroke-width="4" stroke-linecap="round" stroke-linejoin="round"/>
<path d="M15.3313 16.0238C14.8981 16.0238 14.5456 16.3804 14.5456 16.8207C14.5456 17.261 14.8981 17.618 15.3313 17.618C15.7649 17.618 16.1173 17.261 16.1173 16.8207C16.1173 16.3804 15.7649 16.0238 15.3313 16.0238Z" fill="black"/>
<path d="M19.3099 16.0176C18.8726 16.0176 18.5179 16.3771 18.5179 16.8207C18.5179 17.2643 18.8726 17.6239 19.3099 17.6239C19.7467 17.6239 20.1014 17.2643 20.1014 16.8207C20.1014 16.3771 19.7467 16.0176 19.3099 16.0176Z" fill="black"/>
<path d="M25.3905 10.8785C25.0398 9.5541 24.4503 8.69031 24.4254 8.65418L23.974 8L21.1283 11.3123C19.7845 10.9005 18.361 10.8434 17.3235 10.8434C16.286 10.8434 14.8624 10.9005 13.5186 11.3123L10.673 8L10.2217 8.65418C10.1968 8.69031 9.60728 9.5541 9.25654 10.8785C8.80541 12.5819 8.95146 14.285 9.6774 15.8167C9.65435 16.049 9.64216 16.2882 9.64216 16.5349C9.64216 18.2926 10.0484 19.3755 10.5627 20.7466C10.7361 21.2086 10.9152 21.6862 11.1011 22.2456C11.5775 23.6792 12.1526 25.1564 13.1268 26.2494C14.1767 27.4273 15.5495 28 17.3236 28C19.0977 28 20.4705 27.4274 21.5204 26.2494C22.4946 25.1564 23.0697 23.6791 23.5461 22.2456C23.732 21.6862 23.9111 21.2086 24.0845 20.7466C24.5988 19.3756 25.005 18.2926 25.005 16.5349C25.005 16.2882 24.9928 16.049 24.9698 15.8167C25.6956 14.285 25.8417 12.5819 25.3905 10.8785ZM10.4524 13.4689C10.397 13.555 10.3451 13.6437 10.2954 13.7339C10.1645 12.9276 10.209 12.0916 10.4305 11.2337C10.5482 10.7777 10.7006 10.3839 10.8407 10.076L12.3206 11.7985C11.5248 12.2169 10.8967 12.7782 10.4524 13.4689ZM17.3235 23.0165C17.1547 23.0165 16.8109 22.8434 16.4804 22.5126C16.1475 22.1795 15.9734 21.8272 15.9734 21.6515C15.9734 21.4907 16.004 21.4706 16.1103 21.4259C16.3906 21.3077 16.9369 21.2941 17.3235 21.2941C17.7101 21.2941 18.2565 21.3077 18.5368 21.4259C18.643 21.4706 18.6736 21.4907 18.6736 21.6515C18.6736 21.8272 18.4995 22.1795 18.1667 22.5126C17.8362 22.8434 17.4924 23.0165 17.3235 23.0165ZM22.9367 20.3161C22.7677 20.7667 22.5761 21.2775 22.3828 21.8591C21.4022 24.8102 20.3693 26.5096 17.9363 26.7456V24.1222C18.4373 23.9327 18.8466 23.5662 19.0338 23.3788C19.294 23.1183 19.8993 22.4286 19.8993 21.6515C19.8993 21.0094 19.5927 20.5408 19.0127 20.2963C18.6285 20.1345 18.1391 20.0684 17.3235 20.0684C16.508 20.0684 16.0186 20.1344 15.6343 20.2963C15.0543 20.5408 14.7477 21.0094 14.7477 21.6515C14.7477 22.4286 15.353 23.1183 15.6133 23.3788C15.8004 23.5661 16.2097 23.9327 16.7107 24.1222V26.7456C14.2778 26.5095 13.2449 24.8102 12.2642 21.8591C12.071 21.2776 11.8794 20.7668 11.7103 20.3161C11.2212 19.0122 10.8678 18.0702 10.8678 16.5349C10.8678 14.7427 11.5699 13.5278 13.0141 12.8208C14.0475 12.3149 15.4571 12.069 17.3235 12.069C19.1899 12.069 20.5996 12.3149 21.6329 12.8208C23.0772 13.5278 23.7793 14.7427 23.7793 16.5349C23.7793 18.0702 23.4259 19.0122 22.9367 20.3161ZM24.3492 13.7294C24.3002 13.6408 24.2492 13.5536 24.1947 13.4689C23.7503 12.7782 23.1222 12.2169 22.3264 11.7985L23.8066 10.0755C24.1613 10.8561 24.5943 12.1939 24.3492 13.7294Z" fill="black"/>
<defs>
<radialGradient id="paint0_radial_5_171" cx="0" cy="0" r="1" gradientUnits="userSpaceOnUse" gradientTransform="translate(17.1667 21.5) rotate(90) scale(19.5 15.1667)">
<stop stop-color="#B2BEFD"/>
<stop offset="1" stop-color="#526DF9"/>
</radialGradient>
</defs>
</svg>
