<svg width="35" height="43" viewBox="0 0 35 43" fill="none" xmlns="http://www.w3.org/2000/svg">
<path d="M32.3333 17.1667C32.3333 25.7813 17.1667 41 17.1667 41C17.1667 41 2 25.7813 2 17.1667C2 8.552 8.79033 2 17.1667 2C25.543 2 32.3333 8.552 32.3333 17.1667Z" fill="url(#paint0_radial_5_159)" stroke="black" stroke-width="4" stroke-linecap="round" stroke-linejoin="round"/>
<path d="M12.0703 16.799C10.8882 16.799 9.93121 17.7567 9.93121 18.9388C9.93121 20.1209 10.8889 21.0786 12.0703 21.0786C13.2511 21.0786 14.2095 20.1209 14.2095 18.9388C14.2095 17.7567 13.2511 16.799 12.0703 16.799ZM12.0703 19.5852C11.715 19.5852 11.4239 19.2954 11.4239 18.9394C11.4239 18.5835 11.715 18.2936 12.0703 18.2936C12.425 18.2936 12.7155 18.5835 12.7155 18.9394C12.7155 19.2954 12.4256 19.5852 12.0703 19.5852Z" fill="black"/>
<path d="M27.6467 17.1856L27.2967 14.3393C27.2279 13.793 26.7504 13.3922 26.1994 13.4223L25.4327 13.465L23.0525 11.3206C22.8228 11.1142 22.5269 11.0007 22.2184 11.0007L17.3824 11C16.2972 11 15.2446 11.3707 14.3985 12.0505L11.7003 14.2184L8.0719 15.1253C7.60574 15.2415 7.27849 15.6609 7.27849 16.1411V17.187C7.12489 17.1863 7 17.3105 7 17.4641V18.8473C7 19.0443 7.15962 19.2039 7.35663 19.2039H9.40494C9.39625 19.1151 9.37822 19.0303 9.37822 18.9394C9.37822 17.4521 10.583 16.2487 12.0697 16.2487C13.5563 16.2487 14.7604 17.4521 14.7604 18.9394C14.7604 19.0309 14.7417 19.1157 14.7331 19.2039H20.4051C20.3971 19.1151 20.3791 19.0303 20.3791 18.9394C20.3791 17.4521 21.5839 16.2487 23.0699 16.2487C24.5572 16.2487 25.76 17.4521 25.76 18.9394C25.76 19.0309 25.7426 19.1157 25.7333 19.2039H27.644C27.841 19.2039 27.9999 19.0443 27.9999 18.8473V17.5429C28.0033 17.3466 27.8437 17.1856 27.6467 17.1856ZM20.4692 13.6881L13.7226 14.0294L15.0142 12.9909C15.7161 12.4265 16.5884 12.1193 17.4893 12.1193H20.4692V13.6881ZM21.5899 13.6313V12.12H22.0287C22.181 12.12 22.3272 12.1761 22.4401 12.2783L23.8172 13.5178L21.5899 13.6313Z" fill="black"/>
<path d="M23.0712 16.799C21.8891 16.799 20.9321 17.7567 20.9321 18.9388C20.9321 20.1209 21.8898 21.0786 23.0712 21.0786C24.2526 21.0786 25.2103 20.1209 25.2103 18.9388C25.2103 17.7567 24.2526 16.799 23.0712 16.799ZM23.0712 19.5852C22.7152 19.5852 22.4254 19.2954 22.4254 18.9394C22.4254 18.5835 22.7152 18.2936 23.0712 18.2936C23.4258 18.2936 23.717 18.5835 23.717 18.9394C23.717 19.2954 23.4265 19.5852 23.0712 19.5852Z" fill="black"/>
<defs>
<radialGradient id="paint0_radial_5_159" cx="0" cy="0" r="1" gradientUnits="userSpaceOnUse" gradientTransform="translate(17.1667 21.5) rotate(90) scale(19.5 15.1667)">
<stop stop-color="#B2BEFD"/>
<stop offset="1" stop-color="#526DF9"/>
</radialGradient>
</defs>
</svg>
