<svg width="35" height="43" viewBox="0 0 35 43" fill="none" xmlns="http://www.w3.org/2000/svg">
<path d="M32.3333 17.1667C32.3333 25.7813 17.1667 41 17.1667 41C17.1667 41 2 25.7813 2 17.1667C2 8.552 8.79033 2 17.1667 2C25.543 2 32.3333 8.552 32.3333 17.1667Z" fill="url(#paint0_radial_4_56)" stroke="black" stroke-width="4" stroke-linecap="round" stroke-linejoin="round"/>
<path d="M24.719 15.9518L22.717 14.3201V11.7107C22.717 11.4169 22.4779 11.1778 22.1841 11.1778H20.9244C20.6305 11.1778 20.3914 11.4169 20.3914 11.7107V12.4247L17.7164 10.2445C17.5229 10.0869 17.2679 10 16.9983 10C16.7298 10 16.476 10.0863 16.2835 10.2432L9.28101 15.9517C8.96284 16.211 8.98193 16.4368 9.02161 16.5483C9.06119 16.6596 9.18866 16.8463 9.59738 16.8463H10.5562V24.3534C10.5562 24.8892 10.9909 25.325 11.5252 25.325H14.5533C15.0831 25.325 15.4981 24.8982 15.4981 24.3534V21.2749C15.4981 21.011 15.7406 20.7708 16.0068 20.7708H18.0417C18.2954 20.7708 18.5019 20.9969 18.5019 21.2749V24.3534C18.5019 24.88 18.9568 25.325 19.4951 25.325H22.4748C23.0091 25.325 23.4438 24.8891 23.4438 24.3534V16.8463H24.4026C24.8113 16.8463 24.9388 16.6596 24.9784 16.5483C25.0181 16.4368 25.0372 16.211 24.719 15.9518Z" fill="black"/>
<defs>
<radialGradient id="paint0_radial_4_56" cx="0" cy="0" r="1" gradientUnits="userSpaceOnUse" gradientTransform="translate(17.1667 21.5) rotate(90) scale(19.5 15.1667)">
<stop stop-color="#B6FFCF"/>
<stop offset="1" stop-color="#03CA46"/>
</radialGradient>
</defs>
</svg>
