<svg width="35" height="43" viewBox="0 0 35 43" fill="none" xmlns="http://www.w3.org/2000/svg">
<path d="M32.3333 17.1667C32.3333 25.7813 17.1667 41 17.1667 41C17.1667 41 2 25.7813 2 17.1667C2 8.552 8.79033 2 17.1667 2C25.543 2 32.3333 8.552 32.3333 17.1667Z" fill="url(#paint0_radial_5_103)" stroke="black" stroke-width="4" stroke-linecap="round" stroke-linejoin="round"/>
<path d="M24.0652 9.93478C22.1739 8.04348 19.6739 7 17 7C14.3261 7 11.8261 8.04348 9.93478 9.93478C8.04348 11.8261 7 14.3261 7 17C7 19.6739 8.04348 22.1739 9.93478 24.0652C11.8261 25.9565 14.3261 27 17 27C19.6739 27 22.1739 25.9565 24.0652 24.0652C25.9565 22.1739 27 19.6739 27 17C27 14.3261 25.9565 11.8261 24.0652 9.93478ZM22.1087 15.7826L25.087 15.3261C25.1957 15.8696 25.2609 16.4348 25.2609 17C25.2609 17.5652 25.1957 18.1304 25.087 18.6739L22.1087 18.2174C22.2826 17.413 22.2826 16.587 22.1087 15.7826ZM24.7174 14.0435L21.6304 14.5217C21.3913 14.0652 21.087 13.6522 20.7174 13.2826C20.3478 12.913 19.913 12.587 19.4783 12.3696L19.9565 9.28261C21.0217 9.69565 22.0217 10.3261 22.8478 11.1522C23.6739 12 24.3043 12.9783 24.7174 14.0435ZM17 20.5217C16.0652 20.5217 15.1739 20.1522 14.5217 19.5C13.8478 18.8261 13.5 17.9565 13.5 17.0217C13.5 16.087 13.8696 15.1957 14.5217 14.5435C15.2174 13.8478 16.1087 13.5217 17 13.5217C17.8913 13.5217 18.8043 13.8696 19.4783 14.5435C20.1522 15.2174 20.5 16.087 20.5 17.0217C20.5 17.9565 20.1304 18.8478 19.4783 19.5C18.8261 20.1522 17.9348 20.5217 17 20.5217ZM17 8.73913C17.5652 8.73913 18.1304 8.80435 18.6739 8.91304L18.2174 11.8913C17.413 11.6957 16.587 11.6957 15.7826 11.8913L15.3261 8.91304C15.8696 8.80435 16.4348 8.73913 17 8.73913ZM11.1522 11.1522C11.9783 10.3261 12.9783 9.67391 14.0435 9.28261L14.5217 12.3696C14.0652 12.6087 13.6522 12.913 13.2826 13.2826C12.913 13.6522 12.6087 14.087 12.3478 14.5217L9.26087 14.0435C9.69565 12.9783 10.3261 12 11.1522 11.1522ZM8.73913 17C8.73913 16.4348 8.80435 15.8696 8.91304 15.3261L11.8913 15.7826C11.8043 16.1739 11.7391 16.587 11.7391 17C11.7391 17.413 11.7826 17.8261 11.8913 18.2174L8.91304 18.6739C8.80435 18.1304 8.73913 17.5652 8.73913 17ZM9.28261 19.9565L12.3696 19.4783C12.6087 19.9348 12.913 20.3478 13.3043 20.7174C13.6739 21.087 14.1087 21.3913 14.5435 21.6522L14.0652 24.7391C13 24.3261 12 23.6957 11.1739 22.8696C10.3261 22 9.69565 21.0217 9.28261 19.9565ZM17 25.2609C16.4348 25.2609 15.8696 25.1957 15.3261 25.087L15.7826 22.1087C16.1739 22.1957 16.587 22.2609 17 22.2609C17.413 22.2609 17.8261 22.2174 18.2174 22.1087L18.6739 25.087C18.1304 25.1957 17.5652 25.2609 17 25.2609ZM22.8478 22.8478C22.0217 23.6739 21.0217 24.3261 19.9565 24.7174L19.4783 21.6304C19.9348 21.3913 20.3478 21.087 20.7174 20.6957C21.087 20.3261 21.413 19.8913 21.6304 19.4565L24.7174 19.9348C24.3043 21.0217 23.6739 22 22.8478 22.8478Z" fill="black"/>
<defs>
<radialGradient id="paint0_radial_5_103" cx="0" cy="0" r="1" gradientUnits="userSpaceOnUse" gradientTransform="translate(17.1667 21.5) rotate(90) scale(19.5 15.1667)">
<stop stop-color="#B6FFCF"/>
<stop offset="1" stop-color="#03CA46"/>
</radialGradient>
</defs>
</svg>
