<svg width="35" height="43" viewBox="0 0 35 43" fill="none" xmlns="http://www.w3.org/2000/svg">
<path d="M32.3333 17.1667C32.3333 25.7813 17.1667 41 17.1667 41C17.1667 41 2 25.7813 2 17.1667C2 8.552 8.79033 2 17.1667 2C25.543 2 32.3333 8.552 32.3333 17.1667Z" fill="url(#paint0_radial_2_54)" stroke="black" stroke-width="4" stroke-linecap="round" stroke-linejoin="round"/>
<path fill-rule="evenodd" clip-rule="evenodd" d="M10.4286 10.7101C10.4286 8.66106 12.0915 7 14.1429 7C15.2917 7 16.3186 7.52098 17 8.33931C17.6814 7.52098 18.7083 7 19.8571 7C21.9085 7 23.5714 8.66106 23.5714 10.7101C23.5714 11.4456 23.3571 12.1312 22.9875 12.7078H23.8571C25.5929 12.7078 27 14.1134 27 15.8471V18.1303C27 19.0483 26.3801 19.8216 25.5357 20.0555C25.7003 22.1407 25.6049 24.2396 25.2509 26.3036C25.0394 27.5361 24.0373 28.4803 22.7931 28.6191L21.748 28.7358C18.5925 29.0881 15.4075 29.0881 12.252 28.7358L11.2069 28.6191C9.96273 28.4803 8.96059 27.5361 8.74917 26.3036C8.39507 24.2396 8.2997 22.1407 8.46435 20.0555C7.61989 19.8216 7 19.0483 7 18.1303V15.8471C7 14.1134 8.40711 12.7078 10.1429 12.7078H11.0125C10.6429 12.1312 10.4286 11.4456 10.4286 10.7101ZM16.1429 10.7101C16.1429 9.60677 15.2474 8.71235 14.1429 8.71235C13.0383 8.71235 12.1429 9.60677 12.1429 10.7101C12.1429 11.8134 13.0383 12.7078 14.1429 12.7078C15.2474 12.7078 16.1429 11.8134 16.1429 10.7101ZM19.8571 12.7078C20.9617 12.7078 21.8571 11.8134 21.8571 10.7101C21.8571 9.60677 20.9617 8.71235 19.8571 8.71235C18.7526 8.71235 17.8571 9.60677 17.8571 10.7101C17.8571 11.8134 18.7526 12.7078 19.8571 12.7078ZM8.71429 15.8471C8.71429 15.0591 9.35387 14.4202 10.1429 14.4202H16.1429V18.4157H9C8.84221 18.4157 8.71429 18.2879 8.71429 18.1303V15.8471ZM17.8571 20.128H23.8217C23.9821 22.0922 23.8947 24.0699 23.5611 26.0144C23.4787 26.495 23.0879 26.8633 22.6027 26.9174L21.5576 27.0341C20.3275 27.1714 19.0928 27.253 17.8571 27.2788V20.128ZM17.8571 18.4157H25C25.1578 18.4157 25.2857 18.2879 25.2857 18.1303V15.8471C25.2857 15.0591 24.6462 14.4202 23.8571 14.4202H17.8571V18.4157ZM16.1429 20.128V27.2788C14.9072 27.253 13.6725 27.1714 12.4424 27.0341L11.3973 26.9174C10.9121 26.8633 10.5213 26.495 10.4388 26.0144C10.1052 24.0699 10.018 22.0922 10.1783 20.128H16.1429Z" fill="black"/>
<defs>
<radialGradient id="paint0_radial_2_54" cx="0" cy="0" r="1" gradientUnits="userSpaceOnUse" gradientTransform="translate(17.1667 21.5) rotate(90) scale(19.5 15.1667)">
<stop stop-color="#FFFA8D"/>
<stop offset="1" stop-color="#FFF85E"/>
</radialGradient>
</defs>
</svg>
